
Genre:Drama | Family
Language:English  http://www.imdb.com/title/tt1462054/
Source:BluRay.X264-AMIABLE


Format : MPEG-4
Format profile : Base Media
Codec ID : isom
File size : 2.23 GiB
Duration : 1h 53mn
Overall bit rate : 2 812 Kbps


Video
Format settings, CABAC : Yes
Format settings, ReFrames : 3 frames
Codec ID : avc1
Codec ID/Info : Advanced Video Coding
Duration : 1h 53mn
Bit rate mode : Variable
Bit rate : 2 482 Kbps
Maximum bit rate : 13.9 Mbps
Width : 1 280 pixels
Height : 720 pixels
Display aspect ratio : 16:9
Frame rate mode : Constant
Frame rate : 23.976 fps
Color space : YUV
Chroma subsampling : 4:2:0
Bit depth : 8 bits
Scan type : Progressive
Bits/(Pixel*Frame) : 0.112
Stream size : 1.88 GiB (84%)
Writing library : x264


Audio
ID : 2
Format : AAC
Format/Info : Advanced Audio Codec
Format version : Version 4
Format profile : LC
Format settings, SBR : No
Codec ID : 40
Duration : 1h 53mn
Bit rate mode : Variable
Bit rate : 443 Kbps
Maximum bit rate : 512 Kbps
Channel(s) : 6 channels
Channel positions : Front: L C R, Side: L R, LFE
Sampling rate : 48.0 KHz
Stream size : 361 MiB (16%)


Plot:
A young boy fighting cancer writes letters to God, touching lives in his neighborhood and community and inspiring hope among everyone he comes in contact
 
http://rapidhdd.com/images/113110vlcsnap-00001.png 
http://www.rapidhdd.com/images/768528vlcsnap-00004.png 
http://www.rapidhdd.com/images/744732vlcsnap-00005.png 
http://www.rapidhdd.com/images/8111vlcsnap-00007.png 
http://www.rapidhdd.com/images/98248vlcsnap-00006.png